Normalized EMG Linear Envelopes
nRows=119
nColumns=4

endheader
time	 med_gas_r	  soleus_r	 tib_ant_r	
1.29738	  0.018664	  0.182302	  0.036537	
1.33065	  0.018139	  0.171352	  0.036849	
1.36391	  0.017639	  0.161358	  0.037159	
1.39718	  0.017182	  0.153050	  0.037484	
1.43044	  0.016796	  0.146417	  0.037806	
1.46371	  0.016515	  0.140972	  0.038057	
1.49698	  0.016367	  0.136247	  0.038137	
1.53024	  0.016361	  0.132127	  0.037973	
1.56351	  0.016471	  0.128825	  0.037564	
1.59677	  0.016636	  0.126667	  0.036983	
1.63004	  0.016777	  0.125858	  0.036324	
1.66331	  0.016833	  0.126350	  0.035652	
1.69657	  0.016782	  0.127815	  0.034988	
1.72984	  0.016652	  0.129736	  0.034355	
1.7631	  0.016502	  0.131588	  0.033830	
1.79637	  0.016392	  0.133037	  0.033547	
1.82964	  0.016364	  0.134046	  0.033631	
1.8629	  0.016434	  0.134823	  0.034114	
1.89617	  0.016590	  0.135635	  0.034899	
1.92944	  0.016803	  0.136614	  0.035807	
1.9627	  0.017040	  0.137695	  0.036686	
1.99597	  0.017278	  0.138731	  0.037474	
2.02923	  0.017513	  0.139636	  0.038167	
2.0625	  0.017756	  0.140386	  0.038740	
2.09577	  0.018021	  0.140905	  0.039093	
2.12903	  0.018309	  0.141031	  0.039092	
2.1623	  0.018599	  0.140657	  0.038658	
2.19556	  0.018856	  0.139883	  0.037835	
2.22883	  0.019048	  0.139000	  0.036780	
2.2621	  0.019164	  0.138310	  0.035702	
2.29536	  0.019220	  0.137971	  0.034799	
2.32863	  0.019241	  0.137989	  0.034203	
2.3619	  0.019262	  0.138286	  0.033964	
2.39516	  0.019314	  0.138738	  0.034029	
2.42843	  0.019421	  0.139181	  0.034264	
2.46169	  0.019585	  0.139462	  0.034513	
2.49496	  0.019774	  0.139504	  0.034685	
2.52823	  0.019929	  0.139343	  0.034788	
2.56149	  0.019992	  0.139095	  0.034911	
2.59476	  0.019940	  0.138911	  0.035148	
2.62802	  0.019795	  0.138949	  0.035543	
2.66129	  0.019618	  0.139357	  0.036062	
2.69456	  0.019469	  0.140200	  0.036605	
2.72782	  0.019394	  0.141395	  0.037028	
2.76109	  0.019418	  0.142703	  0.037185	
2.79435	  0.019559	  0.143839	  0.036996	
2.82762	  0.019827	  0.144627	  0.036507	
2.86089	  0.020225	  0.145086	  0.035886	
2.89415	  0.020734	  0.145368	  0.035324	
2.92742	  0.021310	  0.145598	  0.034932	
2.96069	  0.021878	  0.145748	  0.034704	
2.99395	  0.022329	  0.145632	  0.034571	
3.02722	  0.022537	  0.144996	  0.034480	
3.06048	  0.022404	  0.143625	  0.034416	
3.09375	  0.021912	  0.141418	  0.034369	
3.12702	  0.021133	  0.138446	  0.034311	
3.16028	  0.020198	  0.134976	  0.034197	
3.19355	  0.019239	  0.131424	  0.033979	
3.22681	  0.018354	  0.128256	  0.033633	
3.26008	  0.017619	  0.126007	  0.033192	
3.29335	  0.017116	  0.125518	  0.032792	
3.32661	  0.016953	  0.128198	  0.032685	
3.35988	  0.017253	  0.135996	  0.033191	
3.39315	  0.018128	  0.151067	  0.034593	
3.42641	  0.019687	  0.175518	  0.037051	
3.45968	  0.022056	  0.211374	  0.040587	
3.49294	  0.025339	  0.259996	  0.045064	
3.52621	  0.029444	  0.320007	  0.050081	
3.55948	  0.033854	  0.384401	  0.054842	
3.59274	  0.037588	  0.439804	  0.058209	
3.62601	  0.039543	  0.470580	  0.059119	
3.65927	  0.039069	  0.466537	  0.057160	
3.69254	  0.036363	  0.428757	  0.052875	
3.72581	  0.032329	  0.368812	  0.047479	
3.75907	  0.028053	  0.302142	  0.042218	
3.79234	  0.024302	  0.241030	  0.037848	
3.8256	  0.021375	  0.191709	  0.034570	
3.85887	  0.019261	  0.155615	  0.032268	
3.89214	  0.017844	  0.131861	  0.030786	
3.9254	  0.017009	  0.118648	  0.030023	
3.95867	  0.016643	  0.113554	  0.029889	
3.99194	  0.016630	  0.113728	  0.030245	
4.0252	  0.016849	  0.116476	  0.030903	
4.05847	  0.017181	  0.119897	  0.031681	
4.09173	  0.017504	  0.123075	  0.032464	
4.125	  0.017709	  0.125760	  0.033212	
4.15827	  0.017735	  0.127907	  0.033922	
4.19153	  0.017591	  0.129405	  0.034567	
4.2248	  0.017341	  0.130142	  0.035065	
4.25806	  0.017059	  0.130241	  0.035321	
4.29133	  0.016800	  0.130188	  0.035297	
4.3246	  0.016596	  0.130676	  0.035051	
4.35786	  0.016481	  0.132256	  0.034708	
4.39113	  0.016498	  0.135063	  0.034363	
4.4244	  0.016687	  0.138798	  0.034026	
4.45766	  0.017066	  0.142913	  0.033650	
4.49093	  0.017613	  0.146813	  0.033208	
4.52419	  0.018263	  0.149998	  0.032762	
4.55746	  0.018926	  0.152141	  0.032455	
4.59073	  0.019504	  0.153142	  0.032428	
4.62399	  0.019914	  0.153106	  0.032737	
4.65726	  0.020112	  0.152223	  0.033312	
4.69052	  0.020100	  0.150623	  0.034009	
4.72379	  0.019931	  0.148327	  0.034706	
4.75706	  0.019688	  0.145329	  0.035368	
4.79032	  0.019449	  0.141723	  0.036025	
4.82359	  0.019262	  0.137783	  0.036678	
4.85685	  0.019124	  0.133953	  0.037244	
4.89012	  0.018994	  0.130739	  0.037588	
4.92339	  0.018822	  0.128560	  0.037620	
4.95665	  0.018580	  0.127620	  0.037367	
4.98992	  0.018279	  0.127902	  0.036964	
5.02319	  0.017971	  0.129288	  0.036578	
5.05645	  0.017721	  0.131642	  0.036340	
5.08972	  0.017575	  0.134760	  0.036307	
5.12298	  0.017535	  0.138244	  0.036471	
5.15625	  0.017559	  0.141469	  0.036775	
5.18952	  0.017590	  0.143764	  0.037151	
5.22278	  0.017590	  0.144703	  0.037536	
